<svg width="211" height="30" viewBox="0 0 211 30" fill="none" xmlns="http://www.w3.org/2000/svg">
<path d="M7.51641 29L0.596406 1.52H8.11641L11.4764 15.96C11.5297 16.2 11.5964 16.5467 11.6764 17C11.7564 17.4533 11.8364 17.9333 11.9164 18.44C12.0231 18.9467 12.1164 19.4133 12.1964 19.84H12.3564C12.4097 19.5733 12.4631 19.2667 12.5164 18.92C12.5697 18.5467 12.6231 18.1867 12.6764 17.84C12.7564 17.4667 12.8231 17.12 12.8764 16.8C12.9564 16.48 13.0097 16.2 13.0364 15.96L16.1964 1.52H23.9964L27.2364 15.96C27.3164 16.2267 27.3964 16.5867 27.4764 17.04C27.5564 17.4933 27.6364 17.9733 27.7164 18.48C27.8231 18.9867 27.9164 19.44 27.9964 19.84H28.1564C28.2097 19.5467 28.2631 19.24 28.3164 18.92C28.3964 18.5733 28.4631 18.2267 28.5164 17.88C28.5964 17.5067 28.6631 17.16 28.7164 16.84C28.7964 16.52 28.8631 16.2267 28.9164 15.96L32.1564 1.52H39.1964L32.2764 29H24.2764L20.7564 13.8C20.7031 13.4267 20.6231 13 20.5164 12.52C20.4097 12.04 20.3031 11.56 20.1964 11.08C20.1164 10.6 20.0497 10.1733 19.9964 9.8H19.8364C19.7831 10.1733 19.7164 10.6 19.6364 11.08C19.5564 11.56 19.4631 12.04 19.3564 12.52C19.2764 13 19.1964 13.4267 19.1164 13.8L15.6364 29H7.51641ZM45.5905 29.48C44.7105 29.48 43.8438 29.3867 42.9905 29.2C42.1638 29.04 41.4038 28.7467 40.7105 28.32C40.0438 27.8667 39.5105 27.2533 39.1105 26.48C38.7105 25.7067 38.5105 24.7333 38.5105 23.56C38.5105 22.04 38.8305 20.8 39.4705 19.84C40.1105 18.88 41.0305 18.1333 42.2305 17.6C43.4571 17.04 44.9238 16.6533 46.6305 16.44C48.3638 16.2267 50.2971 16.12 52.4305 16.12V14.8C52.4305 14.1867 52.3105 13.68 52.0705 13.28C51.8305 12.8533 51.4705 12.5333 50.9905 12.32C50.5371 12.08 49.9238 11.96 49.1505 11.96C48.4571 11.96 47.8438 12.04 47.3105 12.2C46.8038 12.36 46.4171 12.6 46.1505 12.92C45.8838 13.2133 45.7505 13.5733 45.7505 14V14.36H39.3505C39.3238 14.2267 39.3105 14.12 39.3105 14.04C39.3105 13.9333 39.3105 13.8 39.3105 13.64C39.3105 12.3867 39.6971 11.2933 40.4705 10.36C41.2705 9.42667 42.4038 8.70666 43.8705 8.2C45.3371 7.69333 47.1105 7.44 49.1905 7.44C51.1371 7.44 52.8305 7.68 54.2705 8.16C55.7371 8.64 56.8838 9.37333 57.7105 10.36C58.5638 11.3467 58.9905 12.64 58.9905 14.24V23.24C58.9905 23.6933 59.1105 24.0533 59.3505 24.32C59.6171 24.5867 59.9371 24.72 60.3105 24.72H61.6705V28.76C61.3771 28.8933 60.9105 29.04 60.2705 29.2C59.6571 29.3867 58.9105 29.48 58.0305 29.48C57.1238 29.48 56.3238 29.36 55.6305 29.12C54.9638 28.9067 54.4038 28.6 53.9505 28.2C53.5238 27.7733 53.2305 27.28 53.0705 26.72H52.7905C52.2838 27.2533 51.6838 27.7333 50.9905 28.16C50.3238 28.5867 49.5371 28.9067 48.6305 29.12C47.7505 29.36 46.7371 29.48 45.5905 29.48ZM48.0305 24.96C48.6705 24.96 49.2571 24.8667 49.7905 24.68C50.3238 24.4933 50.7771 24.24 51.1505 23.92C51.5505 23.5733 51.8571 23.16 52.0705 22.68C52.3105 22.2 52.4305 21.68 52.4305 21.12V19.72C50.9105 19.72 49.6038 19.8267 48.5105 20.04C47.4171 20.2533 46.5771 20.5867 45.9905 21.04C45.4038 21.4933 45.1105 22.0667 45.1105 22.76C45.1105 23.2667 45.2305 23.6933 45.4705 24.04C45.7371 24.36 46.0838 24.6 46.5105 24.76C46.9371 24.8933 47.4438 24.96 48.0305 24.96ZM71.7589 29.48C70.3989 29.48 69.2389 29.28 68.2789 28.88C67.3456 28.4533 66.6389 27.8267 66.1589 27C65.7056 26.1733 65.4789 25.1733 65.4789 24V12.68H62.7189V7.92H65.6789L67.0389 1.76H71.9989V7.92H76.1189V12.68H71.9989V22.4C71.9989 23.1467 72.1456 23.72 72.4389 24.12C72.7322 24.52 73.2656 24.72 74.0389 24.72H76.1189V28.8C75.7722 28.9067 75.3322 29.0133 74.7989 29.12C74.2922 29.2533 73.7722 29.3467 73.2389 29.4C72.7056 29.4533 72.2122 29.48 71.7589 29.48ZM89.7095 29.48C87.3895 29.48 85.4162 29.08 83.7895 28.28C82.1629 27.48 80.9095 26.2667 80.0295 24.64C79.1762 22.9867 78.7495 20.92 78.7495 18.44C78.7495 15.96 79.1895 13.9067 80.0695 12.28C80.9495 10.6267 82.2029 9.4 83.8295 8.6C85.4562 7.8 87.4162 7.4 89.7095 7.4C91.2029 7.4 92.5762 7.57333 93.8295 7.92C95.1095 8.26667 96.2162 8.8 97.1495 9.52C98.1095 10.24 98.8429 11.1467 99.3495 12.24C99.8562 13.3333 100.11 14.64 100.11 16.16H93.6695C93.6695 15.2533 93.5095 14.5067 93.1895 13.92C92.8962 13.3333 92.4562 12.8933 91.8695 12.6C91.2829 12.3067 90.5495 12.16 89.6695 12.16C88.6562 12.16 87.8295 12.3733 87.1895 12.8C86.5762 13.2267 86.1229 13.8533 85.8295 14.68C85.5362 15.5067 85.3895 16.5333 85.3895 17.76V19.2C85.3895 20.4 85.5362 21.4133 85.8295 22.24C86.1229 23.0667 86.6029 23.6933 87.2695 24.12C87.9362 24.52 88.7895 24.72 89.8295 24.72C90.7362 24.72 91.4829 24.5867 92.0695 24.32C92.6829 24.0267 93.1495 23.5867 93.4695 23C93.7895 22.3867 93.9495 21.6267 93.9495 20.72H100.11C100.11 22.1867 99.8562 23.48 99.3495 24.6C98.8429 25.6933 98.1229 26.6 97.1895 27.32C96.2562 28.04 95.1495 28.5867 93.8695 28.96C92.5895 29.3067 91.2029 29.48 89.7095 29.48ZM104.242 29V0.0399985H110.802V10.2H111.082C111.535 9.64 112.082 9.16 112.722 8.76C113.388 8.33333 114.122 8.01333 114.922 7.8C115.722 7.56 116.548 7.44 117.402 7.44C118.922 7.44 120.202 7.72 121.242 8.28C122.308 8.84 123.122 9.68 123.682 10.8C124.242 11.92 124.522 13.3467 124.522 15.08V29H117.962V16C117.962 15.4133 117.882 14.92 117.722 14.52C117.588 14.0933 117.388 13.7333 117.122 13.44C116.855 13.1467 116.522 12.9333 116.122 12.8C115.722 12.6667 115.268 12.6 114.762 12.6C113.988 12.6 113.308 12.7867 112.722 13.16C112.135 13.5067 111.668 13.9867 111.322 14.6C110.975 15.1867 110.802 15.88 110.802 16.68V29H104.242ZM129.398 29V0.0399985H135.958V29H129.398ZM140.921 5.08V0.0399985H147.481V5.08H140.921ZM140.921 29V7.92H147.481V29H140.921ZM161.485 29.48C160.098 29.48 158.792 29.3333 157.565 29.04C156.365 28.7467 155.298 28.32 154.365 27.76C153.458 27.2 152.738 26.5067 152.205 25.68C151.698 24.8533 151.445 23.8933 151.445 22.8C151.445 22.6933 151.445 22.6 151.445 22.52C151.445 22.4133 151.458 22.32 151.485 22.24H157.685C157.685 22.2933 157.685 22.36 157.685 22.44C157.685 22.4933 157.685 22.5467 157.685 22.6C157.712 23.1867 157.898 23.68 158.245 24.08C158.618 24.4533 159.098 24.7333 159.685 24.92C160.272 25.08 160.912 25.16 161.605 25.16C162.112 25.16 162.645 25.1067 163.205 25C163.792 24.8933 164.285 24.7067 164.685 24.44C165.085 24.1733 165.285 23.7867 165.285 23.28C165.285 22.72 165.032 22.2933 164.525 22C164.045 21.7067 163.392 21.4667 162.565 21.28C161.765 21.0667 160.898 20.8667 159.965 20.68C159.032 20.4667 158.085 20.2267 157.125 19.96C156.192 19.6933 155.325 19.3333 154.525 18.88C153.752 18.4 153.125 17.7867 152.645 17.04C152.165 16.2933 151.925 15.3467 151.925 14.2C151.925 12.9733 152.178 11.9333 152.685 11.08C153.218 10.2 153.938 9.49333 154.845 8.96C155.752 8.42667 156.792 8.04 157.965 7.8C159.165 7.56 160.432 7.44 161.765 7.44C162.992 7.44 164.152 7.56 165.245 7.8C166.365 8.04 167.365 8.41333 168.245 8.92C169.152 9.4 169.858 10.0267 170.365 10.8C170.872 11.5467 171.125 12.4267 171.125 13.44C171.125 13.5733 171.112 13.72 171.085 13.88C171.085 14.0133 171.085 14.1067 171.085 14.16H164.925V13.84C164.925 13.3867 164.778 13.0133 164.485 12.72C164.192 12.4267 163.792 12.2 163.285 12.04C162.778 11.8533 162.218 11.76 161.605 11.76C161.205 11.76 160.805 11.8 160.405 11.88C160.032 11.9333 159.685 12.0267 159.365 12.16C159.045 12.2667 158.778 12.4267 158.565 12.64C158.378 12.8533 158.285 13.12 158.285 13.44C158.285 13.84 158.458 14.1733 158.805 14.44C159.152 14.68 159.618 14.88 160.205 15.04C160.818 15.2 161.485 15.3733 162.205 15.56C163.192 15.7733 164.232 16 165.325 16.24C166.418 16.4533 167.445 16.7733 168.405 17.2C169.392 17.6 170.178 18.2133 170.765 19.04C171.378 19.84 171.685 20.9467 171.685 22.36C171.685 23.6933 171.418 24.8267 170.885 25.76C170.352 26.6667 169.618 27.4 168.685 27.96C167.752 28.4933 166.672 28.88 165.445 29.12C164.218 29.36 162.898 29.48 161.485 29.48ZM183.009 29.48C181.649 29.48 180.489 29.28 179.529 28.88C178.596 28.4533 177.889 27.8267 177.409 27C176.956 26.1733 176.729 25.1733 176.729 24V12.68H173.969V7.92H176.929L178.289 1.76H183.249V7.92H187.369V12.68H183.249V22.4C183.249 23.1467 183.396 23.72 183.689 24.12C183.982 24.52 184.516 24.72 185.289 24.72H187.369V28.8C187.022 28.9067 186.582 29.0133 186.049 29.12C185.542 29.2533 185.022 29.3467 184.489 29.4C183.956 29.4533 183.462 29.48 183.009 29.48ZM200.04 29.48C198.653 29.48 197.346 29.3333 196.12 29.04C194.92 28.7467 193.853 28.32 192.92 27.76C192.013 27.2 191.293 26.5067 190.76 25.68C190.253 24.8533 190 23.8933 190 22.8C190 22.6933 190 22.6 190 22.52C190 22.4133 190.013 22.32 190.04 22.24H196.24C196.24 22.2933 196.24 22.36 196.24 22.44C196.24 22.4933 196.24 22.5467 196.24 22.6C196.266 23.1867 196.453 23.68 196.8 24.08C197.173 24.4533 197.653 24.7333 198.24 24.92C198.826 25.08 199.466 25.16 200.16 25.16C200.666 25.16 201.2 25.1067 201.76 25C202.346 24.8933 202.84 24.7067 203.24 24.44C203.64 24.1733 203.84 23.7867 203.84 23.28C203.84 22.72 203.586 22.2933 203.08 22C202.6 21.7067 201.946 21.4667 201.12 21.28C200.32 21.0667 199.453 20.8667 198.52 20.68C197.586 20.4667 196.64 20.2267 195.68 19.96C194.746 19.6933 193.88 19.3333 193.08 18.88C192.306 18.4 191.68 17.7867 191.2 17.04C190.72 16.2933 190.48 15.3467 190.48 14.2C190.48 12.9733 190.733 11.9333 191.24 11.08C191.773 10.2 192.493 9.49333 193.4 8.96C194.306 8.42667 195.346 8.04 196.52 7.8C197.72 7.56 198.986 7.44 200.32 7.44C201.546 7.44 202.706 7.56 203.8 7.8C204.92 8.04 205.92 8.41333 206.8 8.92C207.706 9.4 208.413 10.0267 208.92 10.8C209.426 11.5467 209.68 12.4267 209.68 13.44C209.68 13.5733 209.666 13.72 209.64 13.88C209.64 14.0133 209.64 14.1067 209.64 14.16H203.48V13.84C203.48 13.3867 203.333 13.0133 203.04 12.72C202.746 12.4267 202.346 12.2 201.84 12.04C201.333 11.8533 200.773 11.76 200.16 11.76C199.76 11.76 199.36 11.8 198.96 11.88C198.586 11.9333 198.24 12.0267 197.92 12.16C197.6 12.2667 197.333 12.4267 197.12 12.64C196.933 12.8533 196.84 13.12 196.84 13.44C196.84 13.84 197.013 14.1733 197.36 14.44C197.706 14.68 198.173 14.88 198.76 15.04C199.373 15.2 200.04 15.3733 200.76 15.56C201.746 15.7733 202.786 16 203.88 16.24C204.973 16.4533 206 16.7733 206.96 17.2C207.946 17.6 208.733 18.2133 209.32 19.04C209.933 19.84 210.24 20.9467 210.24 22.36C210.24 23.6933 209.973 24.8267 209.44 25.76C208.906 26.6667 208.173 27.4 207.24 27.96C206.306 28.4933 205.226 28.88 204 29.12C202.773 29.36 201.453 29.48 200.04 29.48Z" fill="#F33F3F"/>
</svg>
