<svg width="22" height="22" viewBox="0 0 22 22" fill="none" xmlns="http://www.w3.org/2000/svg">
<path fill-rule="evenodd" clip-rule="evenodd" d="M21.7736 0.226989C21.4709 -0.0756631 20.9808 -0.0756631 20.6782 0.226989L11.0003 9.90464L1.32241 0.226989C1.01976 -0.0756631 0.529642 -0.0756631 0.226989 0.226989C-0.0756631 0.529642 -0.0756631 1.01976 0.226989 1.32241L9.90486 11.0001L0.226989 20.6779C-0.0756631 20.9804 -0.0756631 21.4707 0.226989 21.7733C0.378315 21.9247 0.57662 22.0001 0.7747 22.0001C0.973005 22.0001 1.17108 21.9247 1.32241 21.7733L11.0003 12.0955L20.6782 21.7733C20.8295 21.9247 21.0276 22.0001 21.2259 22.0001C21.4242 22.0001 21.6222 21.9247 21.7736 21.7733C22.0762 21.4707 22.0762 20.9804 21.7736 20.6779L12.0957 11.0001L21.7736 1.32241C22.0762 1.01976 22.0762 0.529642 21.7736 0.226989Z" fill="#E1E1E1"/>
</svg>
