<svg width="25" height="25" viewBox="0 0 25 25" fill="none" xmlns="http://www.w3.org/2000/svg">
<g clip-path="url(#clip0_144_2103)">
<path d="M23.5095 3.11139L24.3884 2.20807C24.8035 1.76862 24.8035 1.18268 24.3884 0.779849L24.1076 0.48688C23.7293 0.108463 23.1311 0.15729 22.7283 0.547915L21.8371 1.42682L23.5095 3.11139ZM8.82446 16.4293L11.2048 15.3917L22.6063 4.00251L20.9339 2.35456L9.54467 13.7437L8.44605 16.0387C8.34839 16.2462 8.59252 16.5269 8.82446 16.4293ZM4.3811 24.3394H18.7121C20.9094 24.3394 22.179 23.0699 22.179 20.5553V7.50592L20.2136 9.47126V20.4575C20.2136 21.7272 19.53 22.3741 18.6878 22.3741H4.41772C3.19702 22.3741 2.51342 21.7272 2.51342 20.4575V6.6026C2.51342 5.33307 3.19702 4.67389 4.41772 4.67389H15.5384L17.5036 2.70856H4.3811C1.84204 2.70856 0.548096 3.97809 0.548096 6.49274V20.5553C0.548096 23.0821 1.84204 24.3394 4.3811 24.3394Z" fill="#9A9A9A"/>
</g>
<defs>
<clipPath id="clip0_144_2103">
<rect width="25" height="25" fill="white"/>
</clipPath>
</defs>
</svg>
