<svg width="22" height="22" viewBox="0 0 22 22" fill="none" xmlns="http://www.w3.org/2000/svg">
<rect width="21.913" height="21" rx="8" transform="matrix(-1 0 0 1 21.9131 1)" fill="#D9D9D9"/>
<path d="M7.57668 4.7L10.9767 13.74H11.0167L14.4367 4.7H18.3967V6.32L17.7367 6.38C17.3367 6.42 17.1433 6.65333 17.1567 7.08L17.6567 16.24L18.8967 16.3V18H14.0767V16.38L14.7967 16.32C15.1567 16.2933 15.33 16.12 15.3167 15.8L14.9367 8.74H14.8967L11.8167 16.72H9.91668L6.87668 8.82H6.83668L6.43668 16.24L7.73668 16.3V18H3.01668V16.38L3.73668 16.32C4.04334 16.2933 4.21001 16.1133 4.23668 15.78L4.77668 6.48L3.55668 6.4V4.7H7.57668Z" fill="black"/>
</svg>
