<svg width="34" height="24" viewBox="0 0 34 24" fill="none" xmlns="http://www.w3.org/2000/svg">
<path d="M16.6669 20.5167C20.6055 20.5167 23.8098 17.3123 23.8098 13.3736C23.8098 9.43507 20.6055 6.23082 16.6669 6.23082C12.7282 6.23082 9.52392 9.43494 9.52392 13.3736C9.52392 17.3123 12.7282 20.5167 16.6669 20.5167ZM16.6669 8.27166C19.4802 8.27166 21.769 10.5604 21.769 13.3736C21.769 16.187 19.4802 18.4759 16.6669 18.4759C13.8535 18.4759 11.5648 16.1868 11.5648 13.3736C11.5648 10.5604 13.8535 8.27166 16.6669 8.27166ZM10.1117 0H2.39064V2.74765H0V24H33.3337V2.74765H10.1117V0ZM4.43148 2.04084H8.07084V2.59949H4.43148V2.04084ZM31.2929 4.78849V21.9592H2.04084V4.78849H31.2929ZM19.8868 10.154H13.4468V16.5938H19.8868V10.154ZM17.8459 14.553H15.4877V12.1948H17.8459V14.553ZM29.2689 8.25397H24.6034V6.21313H29.2689V8.25397Z" fill="#E1E1E1"/>
</svg>
